<svg version="1.2" xmlns="http://www.w3.org/2000/svg" viewBox="0 0 32 32" width="32" height="32">
	<title>zeromoon icon</title>
	<style>
		.s0 { fill: #ff7828 } 
	</style>
	<path id="z" class="s0" aria-label="z"  d="m26.9 11c0.6-0.2 0.9-0.4 1-0.3v-0.1c0.1-0.1 0.1-0.2 0.1-0.2 0.9 0.1 2.5-1.2 2.8-1.2 0-0.1-0.2-0.5 0-0.5 0.1 0.1 0.2 0.2 0.4 0.1 0.5-0.1 0.6-0.4 0.4-0.9 0.9-0.4 1-2.2 1.2-2.9 0 0-0.1 0-0.1-0.1-0.1 0-0.2-0.1-0.1-0.2-0.4-1-1.9-1.6-4.5-1.6-0.5 0-2.5 0.1-3.4 0.2-7.7 1-13.4 3.1-17.1 5.9-0.1 0.5 0.1 1.9 0.7 4.2 0.4 0.2 0.8 1 1.5 0.9 0.3-0.7 0.7-1.2 1.4-1.6-0.1 0.2 0 0.3 0.1 0.3 0.1-0.3 0.7-0.5 0.8-0.8 0 0.2 0.1 0.2 0.2 0.2 0-0.1 0.1-0.2 0.1-0.2 0.3 0 1.1-0.4 2.6-1.2 0.1 0 0.2 0.1 0.3 0.1l0.8-0.4c0-0.2-0.2-0.1-0.2-0.4 0.7 0.3 1.1 0.2 1.2-0.2 0.6 0.2 1.6-0.3 2-0.2 0.4-0.6 1-0.8 1.7-0.7 0.2-0.3 0.5-0.5 0.7-0.7 0.1 0.4 0.4-0.1 0.8-0.1 0 0.1 0 0.2 0.1 0.2 0.2-0.3 0.9-0.5 1.2-0.2 0.6 0 1.2-0.6 1.8-0.3-5.3 2.4-11.6 5.7-19.1 10.1-0.3 0.3-1.2 0.8-2.4 1.7-1.2 0.9-2.1 1.6-2.7 2.3 0 0.3-0.3 0.5-0.3 0.7 0.5 0.6 0.3 1.8 1 1.9 0.1 0.2-0.2 0.3-0.1 0.5 0.2 0.2 0.2 0.5 0.1 0.6 0.9 1.7 3.3 2.6 5.3 2 0 0.2 0.5 0.1 0.7-0.1 0.5 0.2 1.6 0.1 1.9-0.3 0.3 0.2 0.6 0.2 0.9 0.1-0.1 0-0.3-0.2-0.5-0.5 0.2 0 0.7-0.3 0.8 0 0 0-0.3 0-0.3 0.1 0 0.3 0.7 0 0.9 0.1 0.1-0.4 0.9-0.6 1.2-0.4 0 0.2-0.6 0.2-0.6 0.2 0.4 0.3 1.1-0.2 1.5-0.1 0-0.1 0-0.1-0.1-0.1-0.1-0.1-0.1-0.1 0-0.2 0.9 0 2.7-0.3 3-0.3 0-0.2 0-0.2 0-0.2 0.2-0.1 0.3 0.1 0.4 0.1l0.3-0.3c0 0.2 0 0.2 0.2 0.2 0.6-0.3 1.8-0.4 3.4-0.4v-0.4c0.3 0 1.5-0.2 2-0.1 0-0.3-0.8-0.1-0.8-0.3 0.3 0 0.9-0.1 1.1-0.1 0 0.2-0.4 0.1-0.2 0.4 0.2 0 0.3-0.2 0.3-0.5 0 0 0 0 0-0.1 0.2 0.1 0.3 0.2 0.3 0.2l0.4-0.3c0 0 0 0.1 0 0.2 0.1-0.1 0.6-0.2 1.7-0.2h1.7c0.4 0 0.6 0 0.7 0 0.3-0.1 0.4-0.1 0.5-0.1-0.1-0.4 0.6-0.4 0.6-0.6 0.2 0.1 0.2 0.2 0.2 0.2-0.2 0-0.4 0-0.3 0.2 0.3 0 1.1-0.2 1.6-0.2 0-0.5 0.4-0.2 0.8-0.5-0.2-0.2-0.1-0.4 0.1-0.6 0.6 0 1.8-0.4 2 0.4 0.4 0.1 0.7-0.2 1-0.2 0 0.1-0.1 0.2-0.2 0.2l-0.1 0.1c0 0.1 0 0.2 0.1 0.2 0.5-0.6 0.8-0.6 1.7-0.5 0-0.3 0.3-0.3 0.3-0.4 0 0.1 0.2 0.2 0.7 0.4 0 0 0.5-0.2 0.7-0.3v0.3c0-0.2 0-0.3 0.1-0.2 0-0.1 0.1-0.1 0.1-0.1v0.3c1.2-0.1 2.1-0.2 2.5-0.3-0.1-0.2-0.1-0.3-0.2-0.3-0.2 0.1-0.5 0.2-0.6 0.2v-0.3c-0.3 0.2-0.5-0.2-0.2-0.2 0.2 0.1 0.2 0.2 0.2 0.2 0.1-0.2 0.6-0.1 0.7-0.3 0 0 0 0.3 0.2 0.3 0-0.1-0.2-0.5 0-0.5 0.1 0 0.1 0.4 0.2 0.4h0.4c0.1-0.1 0-0.2-0.2-0.2-0.1 0-0.2-0.1-0.2-0.2 0.7 0 2.6 0.1 3.1 0.1 0-0.2-0.5-0.2-0.5-0.4l0.3 0.1c0.5 0 0.7 0 0.5 0.3h0.4v-0.1c-0.1 0-0.1-0.1-0.1-0.2 0.3 0 0.9 0.2 1.1 0-0.1 0-0.3-0.1-0.3-0.3-0.4 0.2-1.9-0.4-2.4-0.1 0-0.1-0.1-0.1-0.1-0.2-6.2-0.3-9.9-0.4-11-0.3 0-0.1-0.1-0.2-0.2-0.3-1.6 0-3.4 0.1-5.1 0.2-1.8 0-3.8 0.2-6.1 0.4-2.3 0.2-4 0.3-5.1 0.4-0.9 0.3-1.9 0.4-3 0.3-2.3 0.4-3.9 0.6-4.9 0.5 0.9-0.6 1.4-1.1 1.5-1.1 1.4-0.7 2.7-1.4 3.7-2.2 0-0.2 0-0.4 0.1-0.4-0.1 0.2 0 0.3 0.1 0.3 0-0.2 0-0.3 0.1-0.3 1.6-0.4 3.2-1.3 4.6-2.5 0.9-0.2 2.7-1.2 3.3-1.4 0.1-0.5 1.1-0.7 1.3-1.1h0.3c0-0.1 0-0.2 0.1-0.3 2-0.9 3.3-1.4 3.9-1.8 0-0.1-0.3-0.3 0-0.3 0 0.1 0.2 0.2 0.3 0.1 0-0.1-0.1-0.2-0.1-0.3 0.1 0 0.2 0 0.3-0.1zm4.1-2.3c0-0.1 0.1-0.2 0.3-0.2-0.1 0.1-0.2 0.2-0.3 0.2zm-10.5 0.3c-0.2 0.1-0.3 0-0.2-0.2 0.2 0.1 0.2 0.1 0.2 0.2zm-5.1 1.4c0-0.1 0-0.1 0-0.1h0.1c0.1 0 0.1 0 0.1 0zm-1 0.3c0.1 0 0.1 0 0.1-0.1 0 0.1 0 0.2 0 0.3-0.1 0-0.1 0-0.2-0.1zm5 4.5c0 0 0.1-0.1 0.3-0.1 0 0.2-0.1 0.2-0.3 0.1zm23.2 6.6c0 0 0.2-0.2 0.2-0.3 0 0.1 0.1 0.2 0.2 0.2 0 0.1-0.2 0.1-0.4 0.1zm-0.2-0.2c0 0 0.1 0.1 0.1 0.2h-0.1zm-11 0.9c0.4-0.3 0.9-0.4 1.6-0.2 0 0 0 0 0 0.1v0.1c0.1 0.1 0.1 0.1 0.1 0.2-0.1-0.1-0.3-0.1-0.8-0.1 0.4-0.3-0.4-0.4-0.4-0.1 0 0-0.2 0-0.5 0zm5.4-0.2c0.1 0 0.2 0 0.2 0.2-0.1 0-0.1-0.1-0.2-0.1zm0.7 0.2h-0.1c-0.1-0.1-0.1-0.1-0.1-0.1 0.1-0.1 0.2-0.1 0.2 0zm-1.2-0.2h0.2v0.2h-0.2zm-1.4 0.2c0-0.1 0-0.2 0.2-0.2 0 0.1-0.1 0.2-0.2 0.2zm3.1 0.1c-0.1 0-0.1-0.1-0.1-0.1v-0.1h0.3c0 0.1 0 0.1-0.1 0.1zm-6.9 0.5c-0.1-0.2 0.2-0.2 0.2-0.2 0.1 0 0 0.2-0.2 0.2zm7.2-0.2c0 0-0.1 0-0.2 0h0.1c0.1 0 0.1 0 0.1 0zm-4.4 0.1l-0.2 0.1c-0.1 0-0.1 0-0.1-0.1 0-0.1 0.2-0.1 0.3 0zm-2.9 0.3c-0.1 0 0-0.1 0.2-0.1-0.1 0.1-0.1 0.1-0.2 0.1zm-1.6 0.2h0.1v0.1h-0.1zm-16.5 3.3c0-0.1 0.2-0.1 0.2 0zm-5.1 0.6c0.2 0 0.2 0 0.2-0.1 0 0.2 0 0.2-0.1 0.3-0.1 0-0.1-0.1-0.1-0.2zm19.8-16.3c0-0.2-0.3-0.2-0.3 0 0.1 0 0.2 0.1 0.3 0zm-0.7-0.1c-0.1 0.1-0.1 0.2 0.1 0.2 0-0.1-0.1-0.1-0.1-0.2zm-2.6 1.9c0 0 0.1 0 0.1-0.1l-0.1 0.1zm-3 1.5c-0.1 0-0.2 0-0.2 0.1 0.1 0 0.2-0.1 0.2-0.1zm23.9 7.5c-0.2 0-0.3 0.1-0.3 0.2 0.1 0.2 0.3 0 0.3-0.2zm0.5 0.2c0-0.2-0.3-0.2-0.4-0.1 0 0.1 0.1 0.1 0.4 0.1zm-5 0.8c0.1 0 0.2 0 0.2-0.1-0.1 0-0.2 0-0.2 0.1zm-2.2 0.6c0.1 0 0.1-0.1 0.3-0.3h-0.3zm-6.7-0.2c-0.2 0-0.2 0-0.2 0.1 0 0.2 0.2 0.2 0.2-0.1zm0.6 0.1c0.1 0 0.1 0 0.1-0.1 0 0.1 0 0.1 0 0.1zm0.6 0c0-0.1-0.1-0.1-0.1 0zm2-0.1c-0.1 0.2-0.2 0.3-0.1 0.4 0.2 0.1 0.3 0.1 0.3-0.1-0.1 0-0.1-0.3-0.2-0.3zm2.4 0.2v-0.1h-0.2zm0.6-0.1c0 0-0.2 0-0.2 0zm1.1 0.1h0.1v-0.1h-0.1zm-15.7 1.6c0.1 0 0.2 0 0.2-0.1 0 0.1 0 0.1-0.1 0.1z"/>
</svg>